<svg xmlns="http://www.w3.org/2000/svg" x="0px" y="0px"
     width="64" height="64"
     viewBox="0 0 172 172"
     style=" fill:#000000;"><g fill="none" fill-rule="nonzero" stroke="none" stroke-width="none" stroke-linecap="butt" stroke-linejoin="miter" stroke-miterlimit="10" stroke-dasharray="" stroke-dashoffset="0" font-family="none" font-weight="normal" font-size="none" text-anchor="inherit" style="mix-blend-mode: normal"><path d="M0,172v-172h172v172z" fill="none" stroke="none" stroke-width="1"></path><g id="original-icon" fill="#2ae207" stroke="none" stroke-width="1"><path d="M158.5625,10.75c-0.69287,0 -1.38574,0.25195 -1.91064,0.77686l-5.375,5.40649c-1.0498,-0.5144 -2.22559,-0.80835 -3.46436,-0.80835h-123.625c-4.43017,0 -8.0625,3.63233 -8.0625,8.0625v123.625c0,4.43018 3.63233,8.0625 8.0625,8.0625h123.625c4.43018,0 8.0625,-3.63232 8.0625,-8.0625v-106.36621l15.34815,-15.34814c1.0498,-1.0498 1.0498,-2.77148 0,-3.82129l-10.75,-10.75c-0.5249,-0.5249 -1.21777,-0.77686 -1.91065,-0.77686zM158.5625,17.22729l6.96021,6.96021l-79.52271,79.52271l-33.83521,-33.83521l6.96021,-6.96021l24.96436,24.99585c1.0498,1.0498 2.77148,1.0498 3.82129,0l46.46435,-46.49585zM24.1875,21.5h122.49121l-10.92847,10.93897c-0.43042,-0.13648 -0.89233,-0.18897 -1.37524,-0.18897h-96.75c-2.96045,0 -5.375,2.41455 -5.375,5.375v96.75c0,2.96045 2.41455,5.375 5.375,5.375h8.0625c1.48022,0 2.6875,-1.20728 2.6875,-2.6875c0,-1.48022 -1.20728,-2.6875 -2.6875,-2.6875h-8.0625v-96.75h92.92871l-44.55371,44.58521l-24.96435,-24.99585c-1.0498,-1.0498 -2.77148,-1.0498 -3.82129,0l-10.75,10.75c-1.0498,1.0498 -1.0498,2.77148 0,3.82129l37.625,37.625c0.5354,0.5144 1.20727,0.77685 1.91064,0.77685c0.70337,0 1.37524,-0.26245 1.91065,-0.77685l46.46435,-46.46436v71.42871h-8.0625c-1.48022,0 -2.6875,1.20728 -2.6875,2.6875c0,1.48022 1.20728,2.6875 2.6875,2.6875h8.0625c2.96045,0 5.375,-2.41455 5.375,-5.375v-76.80371l10.75,-10.75v100.99121c0,1.48022 -1.20728,2.6875 -2.6875,2.6875h-123.625c-1.48022,0 -2.6875,-1.20728 -2.6875,-2.6875v-123.625c0,-1.48022 1.20728,-2.6875 2.6875,-2.6875zM59.125,129c-1.49072,0 -2.6875,1.20728 -2.6875,2.6875v5.375c0,1.48022 1.19678,2.6875 2.6875,2.6875c1.49072,0 2.6875,-1.20728 2.6875,-2.6875v-5.375c0,-1.48022 -1.19678,-2.6875 -2.6875,-2.6875zM72.5625,129c-1.49072,0 -2.6875,1.20728 -2.6875,2.6875v5.375c0,1.48022 1.19678,2.6875 2.6875,2.6875c1.49072,0 2.6875,-1.20728 2.6875,-2.6875v-5.375c0,-1.48022 -1.19678,-2.6875 -2.6875,-2.6875zM86,129c-1.49072,0 -2.6875,1.20728 -2.6875,2.6875v5.375c0,1.48022 1.19678,2.6875 2.6875,2.6875c1.49072,0 2.6875,-1.20728 2.6875,-2.6875v-5.375c0,-1.48022 -1.19678,-2.6875 -2.6875,-2.6875zM99.4375,129c-1.49072,0 -2.6875,1.20728 -2.6875,2.6875v5.375c0,1.48022 1.19678,2.6875 2.6875,2.6875c1.49072,0 2.6875,-1.20728 2.6875,-2.6875v-5.375c0,-1.48022 -1.19678,-2.6875 -2.6875,-2.6875zM112.875,129c-1.49072,0 -2.6875,1.20728 -2.6875,2.6875v5.375c0,1.48022 1.19678,2.6875 2.6875,2.6875c1.49072,0 2.6875,-1.20728 2.6875,-2.6875v-5.375c0,-1.48022 -1.19678,-2.6875 -2.6875,-2.6875z"></path></g><g fill="#006323" stroke="none" stroke-width="1"><path d="M43.345,117.98l-4.17,-0.8v-4.73h16.2v4.73l-4.19,0.8v11.28h15.95v-11.28l-4.19,-0.8v-4.73h4.19h7.82h4.18v4.73l-4.18,0.8v28.06l4.18,0.81v4.7h-16.19v-4.7l4.19,-0.81v-10.74h-15.95v10.74l4.19,0.81v4.7h-16.2v-4.7l4.17,-0.81zM132.825,112.45v4.73l-3.22,0.4l-7.93,33.97h-7.27l-7.17,-25.81h-0.17l-7.17,25.81h-7.27l-7.98,-33.97l-3.2,-0.4v-4.73h14.4v4.73l-3.57,0.61l4.48,21.43l0.16,0.03l7.33,-26.8h5.78l7.38,26.8l0.17,-0.03l4.45,-21.43l-3.57,-0.61v-4.73z"></path></g><path d="M29.175,161.55v-59.1h113.65v59.1z" fill="#ff0000" stroke="#50e3c2" stroke-width="3" opacity="0"></path></g></svg>
